<?xml version="1.0" encoding="utf-8"?>
<!-- Generator: Adobe Illustrator 19.1.0, SVG Export Plug-In . SVG Version: 6.00 Build 0)  -->
<svg version="1.1" id="Layer_2" xmlns="http://www.w3.org/2000/svg" xmlns:xlink="http://www.w3.org/1999/xlink" x="0px" y="0px"
	 viewBox="0 0 960 560" enable-background="new 0 0 960 560" xml:space="preserve">
<path fill="none" stroke="#999999" stroke-linecap="round" stroke-miterlimit="10" d="M388.4,287.4l10,3.7c4.2,1.6,7,3.4,8.6,5.6
	c1.6,2.2,2.4,4.7,2.4,7.7c0,3.7-1.3,6.6-3.8,8.7c-2.5,2.1-5.3,3.1-8.5,3.1c-0.7,0-1.5,0-2.1-0.1c-3-0.4-5.2-1.6-6.6-3.7
	c-1.6-2.6-2.7-5.4-3.1-8.4h-20.6c0.1,5.4,1.1,10.2,3,14.3c1.7,3.8,3.9,7,6.6,9.6L23,414.5l127,34l198-339L376.6,233
	c2.6-2.2,5.6-4,8.9-5.4c3.9-1.6,8-2.4,12.5-2.4c4.4,0,8.6,0.8,12.4,2.5c3.8,1.6,7.1,3.9,9.8,6.7c2.7,2.8,4.9,6.2,6.5,10.1
	c1.6,3.9,2.4,8.1,2.4,12.6h-20.6c-0.1-3.7-1.3-6.5-3.5-8.4c-2.2-1.9-4.8-2.8-7.6-2.8c-3.4,0-6.1,1.1-8,3.3c-1.9,2.2-2.8,4.8-2.8,7.6
	c0,2,0.5,4,1.5,5.9c1,1.9,3.6,3.7,7.7,5.3l12.9,5.2c8.2,3.2,13.8,7.5,16.9,12.9c3.1,5.4,4.6,11.4,4.6,17.8c0,4.6-0.8,8.9-2.5,12.8
	c-1.7,3.9-3.9,7.4-6.8,10.4c-2.9,3-6.3,5.4-10.3,7.1c-3.4,1.5-7.1,2.3-11.1,2.5"/>
<path fill="none" stroke="#999999" stroke-linecap="round" stroke-miterlimit="10" d="M515.4,298.7v3.2c0,4.2,1,7.3,2.9,9.4
	c1.9,2.1,4.5,3.1,7.8,3.1c3.3,0,5.9-1,7.8-3.1c1.9-2.1,2.9-5.2,2.9-9.4V259c0-4.2-1-7.3-2.9-9.4c-1.9-2.1-4.6-3.1-7.8-3.1
	c-3.3,0-5.9,1-7.8,3.1c-1.9,2.1-2.9,5.2-2.9,9.4v34.5c0,0,17.7-4.4,17.7-4.4"/>
<path fill="none" stroke="#999999" stroke-linecap="round" stroke-linejoin="round" stroke-miterlimit="10" d="M433.2,313.6
	l14.7-3.5h0v-65.3h-11v-17.2h11v-33.1h21.9v33.1h13.5v17.2h-13.5V294h0l58.6-147.2l39,75l18,13.4c0.5-0.5,1.1-1.1,1.6-1.6
	c3.5-3.1,7.5-5.4,11.8-7c4.4-1.6,8.8-2.4,13.2-2.4c4.4,0,8.9,0.8,13.2,2.4c4.4,1.6,8.3,3.9,11.8,7c3.5,3.1,6.3,7,8.5,11.7
	c2,4.5,3.1,9.6,3.2,15.3L751,235.5l184,74l-78,64l-20-144L672,300l-23.1-17.2v59.9c0,6-1.1,11.3-3.2,15.7l13.5,11L648,382.7
	l-12.9-10.5c-3.3,2.7-6.9,4.7-10.9,6c-3.9,1.3-8,1.9-12.2,1.9c-4.4,0-8.9-0.8-13.2-2.4c-4.4-1.6-8.3-3.9-11.8-7
	c-3.5-3.1-6.3-7-8.5-11.6c-2.2-4.7-3.2-10.1-3.2-16.5v-63.9l-16.5,4v-20.3c0-4.4-0.3-8.5-0.9-12.3c-0.6-3.7-1.7-7-3.2-9.9
	c-2.6-4.7-6.3-8.5-11.2-11.4c-4.9-2.9-10.7-4.3-17.4-4.3c-6.7,0-12.5,1.4-17.4,4.3c-4.9,2.9-8.6,6.7-11.2,11.4
	c-1.6,2.9-2.7,6.2-3.2,9.9c-0.6,3.7-0.9,7.8-0.9,12.3v36.4l-23.7,5.8l0,0.5c0,2.6,0.2,4.6,0.8,6c0.5,1.4,1.3,2.5,2.4,3.2
	c1.1,0.7,2.5,1.1,4.2,1.3c1.7,0.1,3.8,0.2,6.2,0.2v20.6h-9c-5,0-9.2-0.8-12.6-2.4c-2.6-1.2-4.7-2.7-6.5-4.4l-36,88.5"/>
<path fill="none" stroke="#999999" stroke-linecap="round" stroke-miterlimit="10" d="M626.5,257.2c-0.6-3-2-5.4-4-7.1
	c-2.9-2.5-6.4-3.8-10.4-3.8c-3.2,0-6,0.8-8.5,2.3c0,0,23.3,17.7,23.3,17.7v76.3v0.4l-8.8-7.1l-11.2,13.3l9.9,8
	c-1.3,0.6-2.9,0.9-4.7,0.9c-4,0-7.5-1.3-10.4-3.8c-2.9-2.5-4.4-6.4-4.4-11.7v-69.2l20.7-5.2"/>
<path fill="none" stroke="#999999" stroke-linecap="round" stroke-miterlimit="10" d="M388.4,287.4"/>
<path fill="none" stroke="#999999" stroke-linecap="round" stroke-miterlimit="10" d="M394.8,316.1"/>
<line fill="none" stroke="#999999" stroke-linecap="round" stroke-miterlimit="10" x1="418.1" y1="418.5" x2="399.4" y2="336.9"/>
<circle fill="#2D3136" stroke="#818285" stroke-miterlimit="10" cx="528" cy="146.5" r="7"/>
<circle fill="#2D3136" stroke="#818285" stroke-miterlimit="10" cx="567" cy="221.5" r="7"/>
<circle fill="#2D3136" stroke="#818285" stroke-miterlimit="10" cx="751" cy="235.5" r="7"/>
<circle fill="#2D3136" stroke="#818285" stroke-miterlimit="10" cx="672" cy="299.5" r="7"/>
<circle fill="#2D3136" stroke="#818285" stroke-miterlimit="10" cx="837" cy="229.5" r="7"/>
<circle fill="#2D3136" stroke="#818285" stroke-miterlimit="10" cx="935" cy="309.5" r="7"/>
<circle fill="#2D3136" stroke="#818285" stroke-miterlimit="10" cx="857" cy="373.5" r="7"/>
<circle fill="#2D3136" stroke="#818285" stroke-miterlimit="10" cx="419" cy="418.5" r="7"/>
<circle fill="#2D3136" stroke="#818285" stroke-miterlimit="10" cx="348" cy="111.5" r="7"/>
<circle fill="#2D3136" stroke="#818285" stroke-miterlimit="10" cx="150" cy="448.5" r="7"/>
<circle fill="#2D3136" stroke="#818285" stroke-miterlimit="10" cx="23" cy="414.5" r="7"/>
</svg>
