<?xml version="1.0" encoding="utf-8"?>
<!-- Generator: Adobe Illustrator 19.1.0, SVG Export Plug-In . SVG Version: 6.00 Build 0)  -->
<svg version="1.1" id="Layer_1" xmlns="http://www.w3.org/2000/svg" xmlns:xlink="http://www.w3.org/1999/xlink" x="0px" y="0px"
	 viewBox="0 0 960 560" enable-background="new 0 0 960 560" xml:space="preserve">
<g>
	<path fill="#EFEFEF" d="M344.8,227.5c-0.1-3.7-1.3-6.5-3.5-8.4s-4.8-2.8-7.6-2.8c-3.4,0-6.1,1.1-7.9,3.3c-1.9,2.2-2.8,4.8-2.8,7.6
		c0,2,0.5,4,1.5,5.9s3.6,3.7,7.7,5.3l12.9,5.1c8.1,3.1,13.8,7.4,16.8,12.9c3.1,5.4,4.6,11.4,4.6,17.8c0,4.6-0.8,8.8-2.5,12.8
		c-1.6,3.9-3.9,7.4-6.8,10.4s-6.3,5.4-10.3,7.1s-8.4,2.6-13.1,2.6c-4.3,0-8.4-0.7-12.2-2.1c-3.9-1.4-7.3-3.5-10.2-6.2
		c-2.9-2.7-5.3-6.1-7.2-10.2c-1.9-4.1-2.9-8.8-3-14.3h20.6c0.4,3,1.5,5.8,3.1,8.4s4.5,3.9,8.7,3.9c3.1,0,6-1,8.5-3.1s3.8-5,3.8-8.7
		c0-3-0.8-5.6-2.4-7.7s-4.4-4-8.6-5.6l-10.5-3.9c-6.9-2.6-12.3-6.4-16.2-11.5c-3.9-5.1-5.9-11.3-5.9-18.6c0-4.6,0.9-8.8,2.6-12.8
		c1.7-3.9,4-7.3,7-10.1c2.9-2.8,6.3-5,10.2-6.5c3.9-1.6,8-2.4,12.4-2.4s8.5,0.8,12.3,2.5c3.8,1.6,7,3.9,9.8,6.6
		c2.7,2.8,4.9,6.1,6.4,10.1c1.6,3.9,2.4,8.1,2.4,12.5h-20.6V227.5z"/>
	<path fill="#EFEFEF" d="M384.3,165h21.9v33h13.5v17.2h-13.5v60.3c0,2.6,0.2,4.6,0.7,6s1.3,2.5,2.4,3.2s2.5,1.1,4.2,1.3
		c1.7,0.1,3.8,0.2,6.2,0.2v20.6h-9c-5,0-9.2-0.8-12.5-2.4c-3.4-1.6-6-3.6-8-6s-3.5-5.2-4.4-8.3c-0.9-3.1-1.4-6-1.4-8.9v-66.1h-10.9
		v-17.2h10.9V165H384.3z"/>
	<path fill="#EFEFEF" d="M429.8,232.9c0-4.4,0.3-8.5,0.9-12.2s1.6-7,3.2-9.9c2.6-4.7,6.3-8.5,11.2-11.4c4.9-2.9,10.6-4.3,17.4-4.3
		c6.7,0,12.5,1.4,17.4,4.3c4.9,2.9,8.6,6.6,11.2,11.4c1.6,2.9,2.6,6.1,3.2,9.9c0.6,3.7,0.9,7.8,0.9,12.2v35.8
		c0,4.4-0.3,8.5-0.9,12.2s-1.6,7-3.2,9.9c-2.6,4.7-6.3,8.5-11.2,11.4c-4.9,2.9-10.7,4.3-17.4,4.3c-6.7,0-12.5-1.4-17.4-4.3
		s-8.6-6.6-11.2-11.4c-1.6-2.9-2.6-6.1-3.2-9.9c-0.6-3.7-0.9-7.8-0.9-12.2V232.9z M451.6,272.1c0,4.1,1,7.3,2.9,9.3
		c1.9,2.1,4.5,3.1,7.8,3.1s5.9-1,7.8-3.1s2.9-5.2,2.9-9.3v-42.7c0-4.1-1-7.3-2.9-9.3c-1.9-2.1-4.5-3.1-7.8-3.1s-5.9,1-7.8,3.1
		s-2.9,5.2-2.9,9.3V272.1z"/>
	<path fill="#EFEFEF" d="M511.4,232.2c0-6.1,1.1-11.6,3.2-16.3s5-8.6,8.5-11.7c3.5-3.1,7.4-5.4,11.8-7c4.4-1.6,8.8-2.4,13.2-2.4
		s8.8,0.8,13.2,2.4c4.4,1.6,8.3,3.9,11.8,7s6.3,7,8.5,11.7c2.1,4.7,3.2,10.2,3.2,16.3v80.6c0,6-1.1,11.2-3.2,15.7l13.5,10.9
		l-11.2,13.3L571,342.3c-3.3,2.7-6.9,4.7-10.8,6c-3.9,1.3-8,1.9-12.1,1.9c-4.4,0-8.8-0.8-13.2-2.4s-8.3-3.9-11.8-7
		s-6.3-6.9-8.5-11.6c-2.1-4.6-3.2-10.1-3.2-16.4L511.4,232.2L511.4,232.2z M533.3,312.9c0,5.3,1.5,9.2,4.4,11.7s6.4,3.8,10.4,3.8
		c1.9,0,3.4-0.3,4.7-0.9l-9.9-7.9l11.2-13.3l8.8,7.1V313v-80.6c0-5.3-1.5-9.2-4.4-11.7s-6.4-3.8-10.4-3.8s-7.5,1.3-10.4,3.8
		s-4.4,6.4-4.4,11.7L533.3,312.9L533.3,312.9z"/>
</g>
<g>
	<path fill="#BCBCBC" d="M362.3,255.7c-3.2-5.6-9-10.1-17.4-13.3l-12.9-5.2c-3.9-1.5-6.3-3.1-7.2-4.8c-0.9-1.8-1.4-3.6-1.4-5.5
		c0-2.6,0.8-4.9,2.6-7c1.7-2,4-3,7.2-3c2.6,0,4.9,0.8,7,2.6c2,1.7,3.1,4.2,3.2,7.6v0.9H366v-0.9c0-4.5-0.8-8.9-2.5-13
		c-1.6-4-3.9-7.6-6.7-10.4c-2.8-2.9-6.2-5.2-10.1-6.9c-3.9-1.7-8.2-2.6-12.8-2.6c-4.6,0-8.9,0.8-12.9,2.4c-2.9,1.2-5.5,2.7-7.9,4.5
		l-7.3-31.5c-0.1-0.5-0.7-0.9-1.2-0.7c-0.5,0.1-0.9,0.7-0.7,1.2l8,34.6l1.3-1.1c2.5-2.1,5.4-3.9,8.6-5.2c3.7-1.5,7.8-2.3,12.1-2.3
		c4.3,0,8.3,0.8,12,2.4c3.7,1.6,6.8,3.8,9.5,6.4c2.6,2.7,4.7,5.9,6.2,9.7c1.4,3.5,2.2,7.2,2.3,11.2h-18.7c-0.3-3-1.6-6.2-3.8-8.1
		c-2.4-2-5.2-3-8.3-3c-3.7,0-6.7,1.3-8.7,3.7c-2,2.4-3,5.2-3,8.3c0,2.2,0.5,4.3,1.6,6.4c1.1,2.2,3.8,4.1,8.3,5.7l12.9,5.2
		c7.9,3.1,13.4,7.2,16.4,12.5s4.5,11.1,4.5,17.4c0,4.4-0.8,8.6-2.4,12.4c-1.6,3.8-3.8,7.2-6.6,10.1c-2.8,2.9-6.1,5.2-10,6.9
		c-3.3,1.4-6.9,2.2-10.7,2.4c-0.6,0-1,0.5-0.9,1.1c0,0.2,0.1,0.5,0.1,0.6l7.1,32.1c0.1,0.5,0.5,0.9,1,0.9c0.1,0,0.1,0,0.2,0
		c0.5-0.1,0.9-0.6,0.8-1.2l-6.8-31.5c3.6-0.3,7-1.3,10.2-2.6c3.9-1.6,7.5-4.1,10.4-7.2c2.9-3.1,5.3-6.7,7-10.7
		c1.7-4.1,2.6-8.5,2.6-13.2C367.1,267.4,365.5,261.2,362.3,255.7z"/>
	<path fill="#BCBCBC" d="M311,297.2c-2.6-2.5-4.7-5.6-6.4-9.3c-1.7-3.7-2.7-7.9-2.9-12.9h18.8c0.5,3,1.6,5.5,3.1,7.9s4,3.8,7.3,4.2
		c0.7,0.1,1.5,0.1,2.2,0.1c3.4,0,6.5-1.1,9.1-3.4c2.7-2.3,4.1-5.5,4.1-9.5c0-3.2-0.9-6-2.6-8.3s-4.7-4.3-9.1-5.9l-10-3.7
		c-0.5-0.2-1.1,0.1-1.3,0.6c-0.2,0.5,0.1,1.1,0.6,1.3l10,3.7c4,1.5,6.7,3.3,8.2,5.2c1.4,2,2.2,4.4,2.2,7.2c0,3.4-1.1,6-3.4,7.9
		s-5,2.9-7.9,2.9c-0.7,0-1.4,0-2-0.1c-2.8-0.3-4.7-1.4-5.9-3.3c-1.6-2.4-2.6-5.1-3-8L322,273h-22.5v1c0.1,5.6,1.2,10.5,3.1,14.7
		c1.5,3.3,3.4,6.2,5.6,8.7l-44.5,11c-0.5,0.1-0.9,0.7-0.7,1.2c0.1,0.5,0.5,0.8,1,0.8c0.1,0,0.2,0,0.2,0l47.9-11.8L311,297.2z"/>
	<path fill="#BCBCBC" d="M451,267.7c-0.6,0-1,0.4-1,1v3.2c0,4.4,1.3,7.8,3.4,10c2.1,2.3,5.1,3.4,8.7,3.4s6.6-1.2,8.7-3.4
		c2.1-2.3,3.3-5.6,3.3-10V229c0-4.4-1.1-7.8-3.2-10c-2.1-2.3-5-3.4-8.6-3.4s-6.7,1.2-8.8,3.4c-2.1,2.3-3.4,5.6-3.4,10v35.7l19.1-4.7
		c0.5-0.1,1-0.7,0.8-1.2c-0.1-0.5-0.8-0.9-1.4-0.7l-16.6,4.1V229c0-3.9,1.1-6.8,2.8-8.7c1.8-1.9,4.2-2.8,7.2-2.8s5.5,0.9,7.2,2.8
		c1.7,1.9,2.7,4.8,2.7,8.7v42.8c0,3.9-0.9,6.8-2.7,8.7c-1.8,1.9-4.1,2.8-7.1,2.8s-5.6-0.9-7.3-2.8c-1.7-1.9-2.8-4.8-2.8-8.7v-3.2
		C452,268.1,451.6,267.7,451,267.7z"/>
	<path fill="#BCBCBC" d="M608.6,269.2L585.4,252c-0.3-0.2-0.6-0.3-1-0.1c-0.3,0.2-0.5,0.5-0.5,0.9v59.9c0,5.8-1.1,11-3.2,15.3
		c-0.2,0.4-0.1,0.9,0.2,1.2l12.7,10.3l-9.9,11.8l-12.1-9.9c-0.4-0.3-0.9-0.3-1.3,0c-3.2,2.6-6.7,4.6-10.5,5.8
		c-7.9,2.6-16.5,2.5-24.7-0.4c-4.2-1.5-8.1-3.8-11.5-6.8s-6.3-6.8-8.4-11.3c-2.1-4.5-3.3-9.9-3.3-16v-63.9c0-0.3,0-0.6-0.2-0.8
		s-0.4-0.3-0.7-0.2l-15.1,3.7v-19c0-4.5-0.4-8.6-1-12.4c-0.6-3.8-1.8-7.3-3.4-10.2c-2.7-4.9-6.6-8.8-11.6-11.8
		c-5-2.9-11.1-4.4-17.9-4.4c-6.9,0-12.9,1.5-17.9,4.4s-8.9,6.9-11.6,11.8c-1.6,3-3,6.4-3.6,10.2s-1.1,7.9-1.1,12.4V268l-22.7,5.6
		c-0.5,0.1-0.7,0.5-0.6,1l0.1,0.5c0,2.7,0.3,4.8,0.8,6.4c0.6,1.6,1.5,2.9,2.8,3.7c1.2,0.8,2.6,1.3,4.5,1.5c1.5,0.1,3.1,0.2,5.1,0.2
		v19h-7.7c-4.9,0-8.9-1-12.2-2.5c-2.5-1.1-4.6-2.7-6.2-4.3c-0.2-0.2-0.6-0.4-0.9-0.3s-0.6,0.3-0.7,0.6l-8.7,21.2
		c-0.2,0.5,0,1.1,0.5,1.3c0.5,0.2,1.1,0,1.3-0.5l8.2-19.9c1.6,1.4,3.5,2.8,5.7,3.8c3.5,1.6,7.9,2.7,13,2.7h9c0.6,0,0.6-0.8,0.6-1.4
		V286c0-0.6-0.3-1-0.8-1c-2.4,0-4.4-0.1-6.1-0.2c-1.5-0.1-2.7-0.5-3.7-1.1c-0.9-0.6-1.5-1.5-2-2.7c-0.4-1.3-0.7-3.1-0.7-5.4
		l22.7-5.6c0.4-0.1,0.5-0.5,0.5-1v-36.4c0-4.4,0.5-8.4,1.1-12.1c0.6-3.6,1.7-6.8,3.2-9.6c2.5-4.5,6.2-8.3,10.9-11
		c4.7-2.8,10.4-4.2,16.9-4.2s12.2,1.4,16.9,4.2c4.7,2.8,8.3,6.5,10.8,11c1.5,2.8,2.6,6,3.2,9.6c0.6,3.7,0.9,7.8,0.9,12.1v20.3
		c0,0.3,0.1,0.6,0.3,0.8c0.2,0.2,0.4,0.3,0.7,0.2l15-3.7v62.6c0,6.4,1.3,12.1,3.5,16.9c2.2,4.8,5.2,8.8,8.8,11.9
		c3.6,3.2,7.7,5.6,12.2,7.2c8.6,3.1,17.7,3.2,26,0.4c3.8-1.2,7.3-3.2,10.6-5.7l12.3,10c0.2,0.2,0.4,0.2,0.6,0.2
		c0.3,0,0.6-0.1,0.8-0.4l11.2-13.3c0.2-0.2,0.3-0.5,0.2-0.7c0-0.3-0.2-0.5-0.4-0.7l-12.9-10.5c2-4.4,3.1-9.6,3.1-15.4v-57.9l21.5,16
		c0.4,0.3,1,0.2,1.4-0.2C609.2,270.2,609,269.5,608.6,269.2z"/>
	<path fill="#BCBCBC" d="M520.8,206.1c0.4,0.3,1,0.3,1.3-0.1c0.5-0.5,1-1,1.6-1.5c3.4-3,7.3-5.3,11.5-6.8c8.5-3.1,17.3-3.1,25.8,0
		c4.2,1.5,8.1,3.8,11.5,6.8s6.2,6.8,8.2,11.4c2,4.3,3,9.4,3.1,15c0,0.5,0.5,1.1,1,1.1l0,0c0.6,0,1-0.6,1-1.1
		c-0.1-5.8-1.2-11.2-3.3-15.7c-2.2-4.8-5.1-8.9-8.7-12.1c-3.6-3.1-7.7-5.6-12.1-7.2c-8.9-3.2-18.2-3.2-27.1,0
		c-4.5,1.6-8.6,4-12.1,7.2c-0.4,0.3-0.7,0.6-1.1,1l-17.4-13c-0.4-0.3-1.1-0.2-1.4,0.2s-0.2,1.1,0.2,1.4L520.8,206.1z"/>
	<path fill="#BCBCBC" d="M369.2,284.6c0.1,0,0.2,0,0.2,0l14.6-3.5c0.5,0,1-0.5,1-1v-65.3c0-0.6-0.6-0.8-1.1-0.8H374v-15h9.9
		c0.6,0,1.1-0.9,1.1-1.4V165h20v32.6c0,0.6,0.3,1.4,0.8,1.4H418v15h-12.2c-0.6,0-0.8,0.2-0.8,0.8V264c0,0.6,0.4,1,0.9,1
		c0.4,0,0.7-0.2,0.9-0.6l13.1-32.9c0.2-0.5-0.1-1.1-0.6-1.3s-1,0-1.2,0.6L407,258.9V216h12.4c0.6,0,0.6-0.7,0.6-1.2v-17.2
		c0-0.6-0.1-0.6-0.6-0.6H407v-32.5c0-0.6-0.6-1.5-1.2-1.5h-21.9c-0.6,0-0.9,0.9-0.9,1.5V197h-10.1c-0.6,0-0.9,0-0.9,0.6v17.2
		c0,0.6,0.4,1.2,0.9,1.2H383v63.3l-14,3.3c-0.5,0.1-0.9,0.7-0.8,1.2C368.3,284.3,368.7,284.6,369.2,284.6z"/>
	<path fill="#BCBCBC" d="M564,315.2v-79.3l-22.5-17.1c2-1,4.2-1.5,6.6-1.5c3.7,0,7,1.2,9.8,3.5c1.8,1.6,3.1,3.8,3.6,6.6
		c0.1,0.5,0.6,0.9,1.2,0.8c0.5-0.1,0.9-0.6,0.8-1.2c-0.7-3.2-2.1-5.8-4.3-7.7c-3.1-2.7-6.8-4-11.1-4c-3.3,0-6.4,0.8-9,2.5l-1.2,0.8
		l24.1,18.3V311l-8-6.4l-12.5,14.9l9.2,7.4c-0.8,0.2-1.7,0.2-2.7,0.2c-3.8,0-7.2-1.2-9.9-3.5s-4.2-6-4.2-11v-68.4l8.8-2.3
		c0.5-0.1,0.9-0.7,0.8-1.2s-0.8-0.9-1.3-0.7l-10.3,2.7v70c0,5.6,1.7,9.8,4.9,12.5c3.1,2.7,6.9,4,11.1,4c2,0,3.8-0.3,5.2-0.9l1.5-0.7
		l-10.4-8.3l9.9-11.8L564,315.2z"/>
</g>
</svg>
